<?xml version="1.0" encoding="UTF-8" standalone="no"?>
<!-- Created with Inkscape (http://www.inkscape.org/) -->

<svg
   xmlns:dc="http://purl.org/dc/elements/1.1/"
   xmlns:cc="http://creativecommons.org/ns#"
   xmlns:rdf="http://www.w3.org/1999/02/22-rdf-syntax-ns#"
   xmlns:svg="http://www.w3.org/2000/svg"
   xmlns="http://www.w3.org/2000/svg"
   xmlns:sodipodi="http://sodipodi.sourceforge.net/DTD/sodipodi-0.dtd"
   xmlns:inkscape="http://www.inkscape.org/namespaces/inkscape"
   width="744.09448819"
   height="1052.3622047"
   id="svg2"
   version="1.1"
   inkscape:version="0.48.4 r9939"
   sodipodi:docname="particles.svg">
  <defs
     id="defs4" />
  <sodipodi:namedview
     id="base"
     pagecolor="#000000"
     bordercolor="#666666"
     borderopacity="1.0"
     inkscape:pageopacity="0"
     inkscape:pageshadow="2"
     inkscape:zoom="7.9195959"
     inkscape:cx="186.60655"
     inkscape:cy="520"
     inkscape:document-units="px"
     inkscape:current-layer="layer1"
     showgrid="false"
     inkscape:window-width="1920"
     inkscape:window-height="1024"
     inkscape:window-x="1920"
     inkscape:window-y="27"
     inkscape:window-maximized="1" />
  <metadata
     id="metadata7">
    <rdf:RDF>
      <cc:Work
         rdf:about="">
        <dc:format>image/svg+xml</dc:format>
        <dc:type
           rdf:resource="http://purl.org/dc/dcmitype/StillImage" />
        <dc:title></dc:title>
      </cc:Work>
    </rdf:RDF>
  </metadata>
  <g
     inkscape:label="Layer 1"
     inkscape:groupmode="layer"
     id="layer1">
    <g
       id="g3887"
       inkscape:export-filename="/home/jami/Projects/web/space-domination-coffee/assets/engine-glow-purple.png"
       inkscape:export-xdpi="90"
       inkscape:export-ydpi="90">
      <path
         transform="matrix(0.16666667,0,0,0.10300567,103.85043,483.03233)"
         d="m 197.14285,489.47464 a 30,48.541019 0 1 1 -60,0 30,48.541019 0 1 1 60,0 z"
         sodipodi:ry="48.541019"
         sodipodi:rx="30"
         sodipodi:cy="489.47464"
         sodipodi:cx="167.14285"
         id="path2985"
         style="color:#000000;fill:#ff00ff;fill-opacity:0.627451;fill-rule:nonzero;stroke:none;stroke-width:1;marker:none;visibility:visible;display:inline;overflow:visible;enable-background:accumulate"
         sodipodi:type="arc" />
      <path
         transform="matrix(0.16666667,0,0,0.10300567,113.85043,483.03233)"
         d="m 197.14285,489.47464 a 30,48.541019 0 1 1 -60,0 30,48.541019 0 1 1 60,0 z"
         sodipodi:ry="48.541019"
         sodipodi:rx="30"
         sodipodi:cy="489.47464"
         sodipodi:cx="167.14285"
         id="path2985-9"
         style="color:#000000;fill:#ff00ff;fill-opacity:0.56470591;fill-rule:nonzero;stroke:none;stroke-width:1;marker:none;visibility:visible;display:inline;overflow:visible;enable-background:accumulate"
         sodipodi:type="arc" />
      <path
         transform="matrix(0.16666667,0,0,0.10300567,123.85043,483.03233)"
         d="m 197.14285,489.47464 a 30,48.541019 0 1 1 -60,0 30,48.541019 0 1 1 60,0 z"
         sodipodi:ry="48.541019"
         sodipodi:rx="30"
         sodipodi:cy="489.47464"
         sodipodi:cx="167.14285"
         id="path2985-9-3"
         style="color:#000000;fill:#ff00ff;fill-opacity:0.50196081;fill-rule:nonzero;stroke:none;stroke-width:1;marker:none;visibility:visible;display:inline;overflow:visible;enable-background:accumulate"
         sodipodi:type="arc" />
      <path
         transform="matrix(0.16666667,0,0,0.10300567,133.85043,483.03233)"
         d="m 197.14285,489.47464 a 30,48.541019 0 1 1 -60,0 30,48.541019 0 1 1 60,0 z"
         sodipodi:ry="48.541019"
         sodipodi:rx="30"
         sodipodi:cy="489.47464"
         sodipodi:cx="167.14285"
         id="path2985-9-3-1"
         style="color:#000000;fill:#ff00ff;fill-opacity:0.43921569;fill-rule:nonzero;stroke:none;stroke-width:1;marker:none;visibility:visible;display:inline;overflow:visible;enable-background:accumulate"
         sodipodi:type="arc" />
      <path
         transform="matrix(0.16666667,0,0,0.10300567,143.85043,483.03233)"
         d="m 197.14285,489.47464 a 30,48.541019 0 1 1 -60,0 30,48.541019 0 1 1 60,0 z"
         sodipodi:ry="48.541019"
         sodipodi:rx="30"
         sodipodi:cy="489.47464"
         sodipodi:cx="167.14285"
         id="path2985-9-3-1-3"
         style="color:#000000;fill:#ff00ff;fill-opacity:0.3764706;fill-rule:nonzero;stroke:none;stroke-width:1;marker:none;visibility:visible;display:inline;overflow:visible;enable-background:accumulate"
         sodipodi:type="arc" />
      <path
         transform="matrix(0.16666667,0,0,0.10300567,153.85043,483.03233)"
         d="m 197.14285,489.47464 a 30,48.541019 0 1 1 -60,0 30,48.541019 0 1 1 60,0 z"
         sodipodi:ry="48.541019"
         sodipodi:rx="30"
         sodipodi:cy="489.47464"
         sodipodi:cx="167.14285"
         id="path2985-8"
         style="color:#000000;fill:#ff00ff;fill-opacity:0.3137255;fill-rule:nonzero;stroke:none;stroke-width:1;marker:none;visibility:visible;display:inline;overflow:visible;enable-background:accumulate"
         sodipodi:type="arc" />
      <path
         transform="matrix(0.16666667,0,0,0.10300567,163.85043,483.03233)"
         d="m 197.14285,489.47464 a 30,48.541019 0 1 1 -60,0 30,48.541019 0 1 1 60,0 z"
         sodipodi:ry="48.541019"
         sodipodi:rx="30"
         sodipodi:cy="489.47464"
         sodipodi:cx="167.14285"
         id="path2985-9-5"
         style="color:#000000;fill:#ff00ff;fill-opacity:0.25098041;fill-rule:nonzero;stroke:none;stroke-width:1;marker:none;visibility:visible;display:inline;overflow:visible;enable-background:accumulate"
         sodipodi:type="arc" />
      <path
         transform="matrix(0.16666667,0,0,0.10300567,173.85043,483.03233)"
         d="m 197.14285,489.47464 a 30,48.541019 0 1 1 -60,0 30,48.541019 0 1 1 60,0 z"
         sodipodi:ry="48.541019"
         sodipodi:rx="30"
         sodipodi:cy="489.47464"
         sodipodi:cx="167.14285"
         id="path2985-9-3-0"
         style="color:#000000;fill:#ff00ff;fill-opacity:0.1882353;fill-rule:nonzero;stroke:none;stroke-width:1;marker:none;visibility:visible;display:inline;overflow:visible;enable-background:accumulate"
         sodipodi:type="arc" />
      <path
         transform="matrix(0.16666667,0,0,0.10300567,183.85043,483.03233)"
         d="m 197.14285,489.47464 a 30,48.541019 0 1 1 -60,0 30,48.541019 0 1 1 60,0 z"
         sodipodi:ry="48.541019"
         sodipodi:rx="30"
         sodipodi:cy="489.47464"
         sodipodi:cx="167.14285"
         id="path2985-9-3-1-37"
         style="color:#000000;fill:#ff00ff;fill-opacity:0.1254902;fill-rule:nonzero;stroke:none;stroke-width:1;marker:none;visibility:visible;display:inline;overflow:visible;enable-background:accumulate"
         sodipodi:type="arc" />
      <path
         transform="matrix(0.16666667,0,0,0.10300567,193.85043,483.03233)"
         d="m 197.14285,489.47464 a 30,48.541019 0 1 1 -60,0 30,48.541019 0 1 1 60,0 z"
         sodipodi:ry="48.541019"
         sodipodi:rx="30"
         sodipodi:cy="489.47464"
         sodipodi:cx="167.14285"
         id="path2985-9-3-1-3-1"
         style="color:#000000;fill:#ff00ff;fill-opacity:0.0627451;fill-rule:nonzero;stroke:none;stroke-width:1;marker:none;visibility:visible;display:inline;overflow:visible;enable-background:accumulate"
         sodipodi:type="arc" />
    </g>
  </g>
</svg>
